<svg viewBox="0 0 26 20" xmlns="http://www.w3.org/2000/svg">
  <g fill="currentColor">
    <path d="m295.991 66.055v-.88h-3.785v.88h1.452v14.814h-1.452v.88h3.785v-.88h-1.452v-14.814z"
          transform="translate(-269.117 -65.175)"/>
    <path
        d="m.163 100.069 4.43-10a1.728 1.728 0 0 1 1.634-1.108h.163a1.7 1.7 0 0 1 1.616 1.108l4.43 10a1.363 1.363 0 0 1 .145.563 1.325 1.325 0 0 1 -1.326 1.344 1.423 1.423 0 0 1 -1.344-.962l-.853-2h-5.59l-.89 2.088a1.373 1.373 0 0 1 -1.289.871 1.286 1.286 0 0 1 -1.289-1.305 1.483 1.483 0 0 1 .163-.599zm7.862-3.522-1.761-4.195-1.764 4.195z"
        transform="translate(0 -87.078)"/>
    <path
        d="m176.011 134.837v-.037c0-2.124 1.616-3.1 3.922-3.1a6.915 6.915 0 0 1 2.379.4v-.163c0-1.144-.708-1.779-2.088-1.779a6.328 6.328 0 0 0 -1.907.272 1.168 1.168 0 0 1 -.4.073 1.124 1.124 0 0 1 -1.144-1.126 1.144 1.144 0 0 1 .744-1.071 8.474 8.474 0 0 1 3.105-.508 4.494 4.494 0 0 1 3.287 1.089 4.242 4.242 0 0 1 1.053 3.1v4.43a1.325 1.325 0 0 1 -1.344 1.326 1.236 1.236 0 0 1 -1.325-1.144v-.018a3.742 3.742 0 0 1 -2.941 1.235c-1.834-.001-3.341-1.054-3.341-2.979zm6.337-.636v-.49a4.28 4.28 0 0 0 -1.761-.363c-1.18 0-1.906.472-1.906 1.344v.036c0 .744.617 1.18 1.507 1.18 1.288 0 2.16-.708 2.16-1.708z"
        transform="translate(-162.103 -122.844)"/>
  </g>
</svg>
