<svg viewBox="0 0 17.304 13.724" xmlns="http://www.w3.org/2000/svg">
  <path
      d="m17.005 6h-16.705a.3.3 0 0 0 -.3.3v13.125a.3.3 0 0 0 .3.3h16.705a.3.3 0 0 0 .3-.3v-13.125a.3.3 0 0 0 -.3-.3zm-12.232 3.282a1.661 1.661 0 1 1 -1.661 1.661 1.663 1.663 0 0 1 1.661-1.661zm10.96 5.572a.3.3 0 0 1 -.422.018l-3.36-3.08-2.739 3 1.434 1.434a.3.3 0 1 1 -.422.422l-3.072-3.074-4.866 4.285a.3.3 0 1 1 -.394-.448l5.077-4.47a.3.3 0 0 1 .408.013l1.414 1.416 2.922-3.2a.3.3 0 0 1 .207-.1.307.307 0 0 1 .215.078l3.58 3.282a.3.3 0 0 1 .018.423z"
      fill="currentColor" transform="translate(0 -6)"/>
</svg>
