<svg viewBox="0 0 20 20" xmlns="http://www.w3.org/2000/svg">
  <g fill="currentColor">
    <path
        d="m158.2 149.935h-.733a.6.6 0 0 1 -.5-.392 5.813 5.813 0 0 0 -.244-.583.6.6 0 0 1 .078-.631l.522-.522a.939.939 0 0 0 0-1.326l-.847-.847a.937.937 0 0 0 -1.326 0l-.522.522a.535.535 0 0 1 -.373.134.6.6 0 0 1 -.258-.055 5.836 5.836 0 0 0 -.584-.244.6.6 0 0 1 -.392-.5v-.733a.939.939 0 0 0 -.937-.937h-1.2a.939.939 0 0 0 -.937.937v.733a.6.6 0 0 1 -.392.5 5.833 5.833 0 0 0 -.583.244.6.6 0 0 1 -.257.055.536.536 0 0 1 -.374-.134l-.521-.521a.938.938 0 0 0 -1.326 0l-.848.847a.937.937 0 0 0 0 1.326l.522.522a.6.6 0 0 1 .079.631 5.8 5.8 0 0 0 -.243.582.6.6 0 0 1 -.5.392h-.733a.939.939 0 0 0 -.937.937v1.2a.939.939 0 0 0 .937.937h.733a.6.6 0 0 1 .5.392 5.8 5.8 0 0 0 .244.582.6.6 0 0 1 -.079.631l-.522.522a.939.939 0 0 0 0 1.326l.848.848a.937.937 0 0 0 1.326 0l.522-.522a.536.536 0 0 1 .374-.134.594.594 0 0 1 .257.055 5.817 5.817 0 0 0 .583.244.6.6 0 0 1 .392.5v.733a.938.938 0 0 0 .937.937h1.2a.938.938 0 0 0 .937-.937v-.733a.6.6 0 0 1 .392-.5 5.834 5.834 0 0 0 .583-.244.6.6 0 0 1 .257-.055.536.536 0 0 1 .374.134l.522.522a.937.937 0 0 0 1.326 0l.847-.848a.939.939 0 0 0 0-1.326l-.521-.522a.6.6 0 0 1 -.079-.631 5.808 5.808 0 0 0 .244-.583.6.6 0 0 1 .5-.392h.733a.939.939 0 0 0 .937-.937v-1.2a.939.939 0 0 0 -.938-.936zm-3.971 1.536a2.747 2.747 0 1 1 -2.747-2.747 2.75 2.75 0 0 1 2.752 2.748z"
        transform="translate(-139.142 -139.128)"/>
    <path
        d="m6.871 5.006a.153.153 0 0 1 .1-.092h.367a.626.626 0 0 0 .625-.625v-.6a.626.626 0 0 0 -.625-.625h-.362a.152.152 0 0 1 -.1-.092 3.031 3.031 0 0 0 -.129-.307.149.149 0 0 1 .009-.137l.261-.261a.626.626 0 0 0 0-.884l-.427-.422a.625.625 0 0 0 -.884 0l-.261.261a.121.121 0 0 1 -.076.021.144.144 0 0 1 -.061-.012 3.033 3.033 0 0 0 -.308-.131.153.153 0 0 1 -.091-.1v-.369a.626.626 0 0 0 -.625-.625h-.6a.626.626 0 0 0 -.624.625v.369a.152.152 0 0 1 -.092.1 3.043 3.043 0 0 0 -.307.129.146.146 0 0 1 -.061.012.121.121 0 0 1 -.076-.021l-.261-.259a.625.625 0 0 0 -.884 0l-.423.423a.626.626 0 0 0 0 .884l.261.261a.149.149 0 0 1 .009.137 3.043 3.043 0 0 0 -.129.307.153.153 0 0 1 -.1.092h-.372a.626.626 0 0 0 -.625.626v.6a.626.626 0 0 0 .625.625h.367a.153.153 0 0 1 .1.092 3.022 3.022 0 0 0 .129.307.149.149 0 0 1 -.009.137l-.261.261a.625.625 0 0 0 0 .884l.423.423a.625.625 0 0 0 .884 0l.261-.261a.121.121 0 0 1 .081-.022.145.145 0 0 1 .061.012 3.04 3.04 0 0 0 .307.128.153.153 0 0 1 .092.1v.367a.626.626 0 0 0 .625.625h.6a.626.626 0 0 0 .625-.625v-.362a.152.152 0 0 1 .09-.105 3.041 3.041 0 0 0 .307-.129.145.145 0 0 1 .061-.012.121.121 0 0 1 .076.021l.261.261a.625.625 0 0 0 .884 0l.424-.418a.626.626 0 0 0 0-.884l-.261-.261a.149.149 0 0 1 -.009-.137 3.079 3.079 0 0 0 .128-.312zm-1.671-1.016a1.217 1.217 0 1 1 -1.216-1.218 1.219 1.219 0 0 1 1.216 1.218z"
        transform="translate(0 -.006)"/>
  </g>
</svg>
