<svg viewBox="0 0 20 18" xmlns="http://www.w3.org/2000/svg">
  <path
      d="m91.93 13.877a2.346 2.346 0 0 1 -1.262-.334 1.217 1.217 0 0 1 -.561-.647 6.709 6.709 0 0 1 -.151-1.856v-4.253h3.928v-2.6h-3.928v-4.187h-2.363a6.615 6.615 0 0 1 -.583 2.115 4.6 4.6 0 0 1 -1.11 1.424 4.974 4.974 0 0 1 -1.673.906v2.342h1.833v5.813a4.847 4.847 0 0 0 .237 1.737 3 3 0 0 0 .853 1.133 4.394 4.394 0 0 0 1.489.809 6.34 6.34 0 0 0 2.007.292 7.809 7.809 0 0 0 1.867-.205 9.536 9.536 0 0 0 1.921-.7v-2.61a4.5 4.5 0 0 1 -2.504.821z"
      fill="currentColor" transform="translate(-84.226)"/>
</svg>
