<svg viewBox="0 0 20.26 16.073" xmlns="http://www.w3.org/2000/svg">
  <g fill="currentColor">
    <path
        d="m9.229 136.932-2.307-2.307-2.336 2.335 1.814 1.813h1.181v.659h-1.319a.33.33 0 0 1 -.233-.1l-3.063-3.063-2.966 2.97v.852a.989.989 0 0 0 .989.989h7.251a.989.989 0 0 0 .989-.989zm0 0"
        transform="translate(0 -131.852)"/>
    <path d="m176.659 64.33a.33.33 0 1 1 -.33-.33.33.33 0 0 1 .33.33zm0 0" transform="translate(-172.374 -62.682)"/>
    <path
        d="m9.229.989a.989.989 0 0 0 -.989-.989h-7.251a.989.989 0 0 0 -.989.989v5.466l2.733-2.733a.33.33 0 0 1 .466 0l.921.921 2.568-2.569a.33.33 0 0 1 .466 0l2.075 2.074zm-5.274 1.648a.989.989 0 1 1 .989-.989.989.989 0 0 1 -.989.989zm0 0"/>
    <path d="m11.109.102h9.151v1.141h-9.151z"/>
    <path d="m0 11.51h20.26v1.141h-20.26z"/>
    <path d="m11.109 3.525h9.151v1.141h-9.151z"/>
    <path d="m0 14.932h12.275v1.141h-12.275z"/>
    <path d="m11.109 6.947h9.151v1.141h-9.151z"/>
  </g>
</svg>
