<svg viewBox="0 0 19.45 13" xmlns="http://www.w3.org/2000/svg">
  <path
      d="m-130.878 73.4a.585.585 0 0 0 -.21-.042.5.5 0 0 0 -.378.16l-3.382 3.374v-1.385a2.328 2.328 0 0 0 -.709-1.708 2.328 2.328 0 0 0 -1.708-.709h-10.318a2.329 2.329 0 0 0 -1.708.709 2.329 2.329 0 0 0 -.709 1.708v5.909a2.328 2.328 0 0 0 .709 1.708 2.328 2.328 0 0 0 1.708.709h10.318a2.328 2.328 0 0 0 1.708-.709 2.328 2.328 0 0 0 .709-1.708v-1.394l3.382 3.382a.5.5 0 0 0 .378.159.586.586 0 0 0 .21-.042.5.5 0 0 0 .327-.5v-9.121a.5.5 0 0 0 -.327-.5z"
      fill="currentColor" transform="translate(150 -73.09)"/>
</svg>
